<svg xmlns="http://www.w3.org/2000/svg" viewBox="0 0 348.3 349.5" enable-background="new 0 0 348.3 349.5"><style type="text/css">.st0{opacity:0.1;fill:#FFFFFF;} .st1{fill:#FFDD00;}</style><path class="st0" d="M174.2 0C78.1 0 0 78.4 0 174.8s78.1 174.8 174.2 174.8c96 0 174.2-78.4 174.2-174.8C348.3 78.4 270.2 0 174.2 0zm0 0C78.1 0 0 78.4 0 174.8s78.1 174.8 174.2 174.8c96 0 174.2-78.4 174.2-174.8C348.3 78.4 270.2 0 174.2 0z"/><path d="M174.2 15.5c-88.2 0-160 72-160 160.5s71.8 160.5 160 160.5 160-72 160-160.5c-.1-88.5-71.8-160.5-160-160.5z"/><path class="st1" d="M245.6 72.8s.8 13.4-6.4 36.6c0 0-93.7-16.3-149.2 43.8 0 0-2.3 12.9 2.4 27.5 0 0-21.7 12.1-38.1 35.2 0 0-14.4-40.6-5-77.2 1.7-6.9 61.1-96.6 196.3-65.9zm-13.9 79.1s-.3 17.1-9 35.3c0 0-66.1-2.7-110 38.7 0 0 4.2 30.7 47.9 53.4 4.9 2.6 1.4 24-15 24 0 0-55.6-9.6-85.6-75.3-.8-2 52.5-80 171.7-76.1z"/></svg>