<svg width="70" height="70" viewBox="0 0 70 70" xmlns="http://www.w3.org/2000/svg"><title>Oval 4</title><desc>Created with Sketch.</desc><g fill="none" fill-rule="evenodd"><circle stroke="#85E1E5" stroke-width="3" opacity=".496" fill="#fff" cx="35" cy="35" r="35"/><path d="M35 42c6.075 0 11-4.925 11-11s-4.925-11-11-11-11 4.925-11 11 4.925 11 11 11z" fill="#85E1E5"/><path d="M51 28c0 3.314-2.686 6-6 6s-6-2.686-6-6c0-1.227.368-2.367 1-3.318V21h11v7zM19 28c0 3.314 2.686 6 6 6s6-2.686 6-6c0-1.227-.368-2.367-1-3.318V21H19v7z" stroke="#85E1E5" stroke-width="2"/><path fill="#85E1E5" d="M24 18h22v13H24z"/><circle stroke="#fff" stroke-width="2" cx="35" cy="29" r="4"/></g></svg>