<svg xmlns="http://www.w3.org/2000/svg" viewBox="0 0 38.9 38.9" enable-background="new 0 0 38.9 38.9"><style type="text/css">.st0{fill:#FF0000;}</style><path class="st0" d="M19.5 0C8.7 0 0 8.7 0 19.5 0 30.2 8.7 39 19.5 39S39 30.3 39 19.5C38.9 8.7 30.2 0 19.5 0zm7.1 35.9l-1.2-.4-1.6-.3-2.8.7-.8.5h-2.3l-1-.4-.6-.8-.7-.2.1.8-.5.8-1.8-.9-.6.4C6.3 33.5 1.6 27 1.6 19.5c0-1 .1-2.1.3-3l1.5.5 1 .7.3.7.6 1.2 1 .5-2.3 1V24l.3 1.4 1.2.7.7 1 1.9 3.4.9 2.3 1.7 1.6 1.4.6.4-.7-.6-1.2.1-2.1.3-1.3 2.1-1-.6-1.5s.9-1.6.8-2c-.1-.4 1.2-1 1.2-1l.6-.3.4-1.1-.1-.8-.8-.2-1.9-2.3-1.7-1.2-4.4-.3-.9.8-.9.1.2-.9-.1-.6.4-.9.6-.4-.3-.5H5.5s-.7-1-1.1-1.6 1.9-3.8 1.9-3.8l2.4-.1.3 1.3.6.7.9.3-.5-1.6v-1l.8-1.2.8-1.4V6.1l.8-.4 1.4-.3.2-.8s-.3-.7-.2-.8c.1-.1.2-1 .8-1.5l.1-.1c.6-.2 1.3-.3 1.9-.4l-.3.6v.9h1.2l.5-.7 1.4-.5v-.6c1.1 0 2.1.1 3.2.3l-.7.3 1.2.5 1.4.3.7.5.1 1.3 1.6 1 1.3.2-.6.8-1.1.5-.5.7.2.9 1.7.6.9-.4 1.2-.4.6-.9.9.6-.3.9 1.8.3 1.4.9v.4L33 9.5l-2.3-.1-2.1.1-1.4.7-1.4.7-1.4 1.1-.6 1.6.6 1 .4 1.1-.8.9.7 1.2 1.8.9 1.4 1.1 2.1.3 1.3.3 1.2-.3.6 1 .1.9-.5 1.6.4.7-1.5 2v1.3l-.6 2-.7 1.1.8 1h1.1l.4-.4h.3c-1.7 1.9-3.9 3.5-6.3 4.6z"/></svg>