<?xml version="1.0" encoding="utf-8"?>
<!-- Generator: Adobe Illustrator 18.1.0, SVG Export Plug-In . SVG Version: 6.00 Build 0)  -->
<!DOCTYPE svg PUBLIC "-//W3C//DTD SVG 1.1//EN" "http://www.w3.org/Graphics/SVG/1.1/DTD/svg11.dtd">
<svg version="1.1" id="Layer_1" xmlns:sketch="http://www.bohemiancoding.com/sketch/ns"
	 xmlns="http://www.w3.org/2000/svg" xmlns:xlink="http://www.w3.org/1999/xlink" x="0px" y="0px" viewBox="-289 379 36 36"
	 enable-background="new -289 379 36 36" xml:space="preserve">
<title>Oval 23</title>
<desc>Created with Sketch.</desc>
<g id="Page-1" sketch:type="MSPage">
	<circle id="Oval-23" sketch:type="MSShapeGroup" fill="none" stroke="#85E1E5" stroke-width="2" cx="-271" cy="397" r="17">
	</circle>
	<path id="Path-87" sketch:type="MSShapeGroup" fill="#85E1E5" stroke="#85E1E5" stroke-linejoin="round" d="M-275,394.1h1.6
		l0.9-1.2l1.3-0.2l1.2,1.2l1.8,0.2l0.4,0.9l1.4,2.9c0,0,1.3-0.5,2-0.7c0.1,0,0.3-0.1,0.3-0.1l-2-1.4l3.6,1l1.5,3.3l1.3-0.7l-0.7-1.4
		l1.1-0.7l1.5,2.3h1.5l0.9-4.3l-1.8-6.7l-4.7-2.4l-5.2,1.4l-2.3-0.7l-3.5,2.4l1.1,0.7l0.4,0.8l-2.7,1.2L-275,394.1z"/>
	<path id="Path-88" sketch:type="MSShapeGroup" fill="#85E1E5" stroke="#85E1E5" stroke-linejoin="round" d="M-274.6,400.3l-1.3-1.3
		l-0.1-1.5l1.8-2.4l2.5-0.1l3.3,1l0.9,2.2l1.1,1.1l1-0.3l-0.6,1.5l-1.3,1l0.2,1.8l-0.9,0.9l-0.2,1.1l-1,1.2l-1.4,0.1l-1-3l0.4-1
		l-0.8-1.4v-1L-274.6,400.3z"/>
	<path id="Path-89" sketch:type="MSShapeGroup" fill="#85E1E5" stroke="#85E1E5" stroke-linejoin="round" d="M-281,384.1l0.6,3.1
		l1.1,1.6l1.4,0.1l0.3-1.7l2-1.8l-1.7-3.7L-281,384.1z"/>
	<path id="Path-90" sketch:type="MSShapeGroup" fill="#85E1E5" stroke="#85E1E5" stroke-linejoin="round" d="M-287,400.3l2.4-0.3
		l2.6,0.9c0,0,0.9,1.3,1.3,1.3c0.4,0,2,1,2,1l-0.6,0.9l-0.3,1.2l-1.3,0.8l-0.4,1.2l-2,0.8L-287,400.3z"/>
</g>
</svg>
