<svg xmlns="http://www.w3.org/2000/svg" viewBox="-289 379 36 36" enable-background="new -289 379 36 36"><title>Oval 23</title><desc>Created with Sketch.</desc><g stroke="#85E1E5"><circle fill="none" stroke-width="2" cx="-271" cy="397" r="17"/><path fill="#85E1E5" stroke-linejoin="round" d="M-275 394.1h1.6l.9-1.2 1.3-.2 1.2 1.2 1.8.2.4.9 1.4 2.9s1.3-.5 2-.7c.1 0 .3-.1.3-.1l-2-1.4 3.6 1 1.5 3.3 1.3-.7-.7-1.4 1.1-.7 1.5 2.3h1.5l.9-4.3-1.8-6.7-4.7-2.4-5.2 1.4-2.3-.7-3.5 2.4 1.1.7.4.8-2.7 1.2-.9 2.2zm.4 6.2l-1.3-1.3-.1-1.5 1.8-2.4 2.5-.1 3.3 1 .9 2.2 1.1 1.1 1-.3-.6 1.5-1.3 1 .2 1.8-.9.9-.2 1.1-1 1.2-1.4.1-1-3 .4-1-.8-1.4v-1l-2.6.1zm-6.4-16.2l.6 3.1 1.1 1.6 1.4.1.3-1.7 2-1.8-1.7-3.7-3.7 2.4zm-6 16.2l2.4-.3 2.6.9s.9 1.3 1.3 1.3 2 1 2 1l-.6.9-.3 1.2-1.3.8-.4 1.2-2 .8-3.7-7.8z"/></g></svg>