<svg xmlns="http://www.w3.org/2000/svg" viewBox="0 0 45.5 38.4" enable-background="new 0 0 45.5 38.4"><style type="text/css">.st0{fill:#FF0000;}</style><path class="st0" d="M9.1 22.8c0-1.2-.6-2.1-1.5-2.5-.1-1.3-.2-2.7-.3-4.2l22.9 9.3L45.5 8 20.2 0 0 13.1l6.1 2.5c0 1 .1 2.7.1 4.7-.9.4-1.5 1.3-1.5 2.5 0 1.1.6 2.1 1.4 2.5-.1 2.5-.3 5.1-.7 7.3 2.5.2 3.8 0 3.8 0s-.5-3-1-7.6c.5-.5.9-1.3.9-2.2zm24.9.3l-3.7 4.1-16.4-7.1s-1.4 1.7-1.5 4.3c-.1 2.7 0 6.3 0 6.3s3.8-1.2 5.9 0 8.8 6.1 9.4 7.6c1.8-1.8 7-8 7-8s1.1-4.5 0-6.6l-.7-.6z"/></svg>