<svg xmlns="http://www.w3.org/2000/svg" viewBox="0 0 30.9 39.1" enable-background="new 0 0 30.9 39.1"><style type="text/css">.st0{fill:#FF0000;}</style><path class="st0" d="M15.5.038C7 .038 0 6.938 0 15.538c0 6.5 4.1 12.3 10.2 14.5l5.3 9.1 5.3-9.1c6.1-2.2 10.2-8 10.2-14.5-.1-8.6-7-15.5-15.5-15.5zm0 956.362c6.3 0 11.5 5.1 11.5 11.5 0 6.3-5.1 11.5-11.5 11.5-6.3 0-11.5-5.1-11.5-11.5s5.1-11.5 11.5-11.5zM15.4 22.9c-2 0-3.7-.6-5.1-1.9-1-.9-1.8-2-2.1-3.3-.4-1.3-.4-2.7-.1-4 .1-.3.2-.7.4-1 .6-1.3 1.6-2.5 2.7-3.2.7-.4 1.5-.8 2.2-1 3.6-1 7.5.8 8.9 4.4 1 2.6.7 5-1 7.2-1 1.3-2.3 2.1-3.8 2.6-.6.2-1.3.3-2.1.2zm-1.5-5.1c0-.2-.1-.3-.1-.4-.3-.7-.5-1.4-.8-2.1-.1-.3-.3-.4-.5-.4-.5-.1-.9-.3-1.3-.5-.2-.1-.4-.2-.7-.2-.6.6-.9 1.4-1.5 2-.2 0-.3-.3-.5-.3 0 1.3.5 2.4 1.1 3.4.2-.1.1-.3.3-.4l2.4.6c.5-.5 1-1.1 1.6-1.7zm-1-8.6c-1.1.4-2.1 1.1-2.8 2 .2.1.4 0 .5.2.1.7 0 1.6.1 2.4.8.3 1.6.6 2.3.9.8-.6 1.6-1.1 2.3-1.8v-2.3c-.9-.3-1.7-.5-2.5-.7 0-.4.2-.4.1-.7zm4.3 12.5c.4-.6.8-1.3 1.3-2-.5-.5-1-1.1-1.6-1.6-.1-.1-.2-.1-.3-.1h-2.3c-.6.6-1.1 1.2-1.6 1.8.5.7 1.1 1.3 1.5 2-.1.1-.2.1-.2.2-.1 0-.2.1-.2.2 1 .4 3.4.3 3.6-.2.1-.1-.1-.1-.2-.3zm.8-7.1c.8-.3 1.5-.6 2.3-.9v-2.3c.1-.2.3-.1.3-.3-.4-.7-2.2-1.9-2.5-1.8-.1.1.1.2-.1.3-.7.3-1.5.4-2.3.8v2.4c.9.7 1.6 1.2 2.3 1.8zm.3.4c-.3.9-.7 1.8-1 2.7.6.6 1.1 1.2 1.7 1.7.9-.3 1.6-.7 2.4-1 .2.1.1.3.3.4.4-.8.7-1.7.8-2.6-.2-.1-.2.1-.4 0-.5-.5-1-1.3-1.6-1.9-.8.2-1.5.5-2.2.7z"/></svg>