<svg xmlns="http://www.w3.org/2000/svg" viewBox="0 0 38.8 38.8" enable-background="new 0 0 38.8 38.8"><style type="text/css">.st0{fill:#FF0000;}</style><path class="st0" d="M20.2 24.3c-4 0-7.3 3.3-7.3 7.3s3.3 7.3 7.3 7.3 7.3-3.3 7.3-7.3-3.3-7.3-7.3-7.3zm0 11.3c-2.2 0-4-1.8-4-4s1.8-4 4-4 4 1.8 4 4-1.8 4-4 4z"/><circle class="st0" cx="20.2" cy="31.5" r="2.4"/><path class="st0" d="M15.4 21h4.4L4 0H.8C.5 0 .2.2.1.4s-.1.6.1.9l14.6 19.4c.1.2.3.3.6.3zm9.7 0c.3 0 .6-.2.7-.4s.1-.6-.1-.8L11.2.3c-.2-.2-.4-.3-.7-.3H6.1l15.8 21h3.2zM38.7.4c-.1-.2-.4-.4-.7-.4h-9.7c-.3 0-.5.1-.7.4l-6.5 9.7c-.2.3-.2.7 0 .9l5.1 6.8c.2.2.4.3.6.3.3 0 .5-.1.7-.4l11-16.6c.3-.1.4-.4.2-.7z"/></svg>