<svg xmlns="http://www.w3.org/2000/svg" viewBox="0 0 34.8 39.5" enable-background="new 0 0 34.8 39.5"><style type="text/css">.st0{fill:#FF0000;}</style><path class="st0" d="M17.4 28.6c-5.8 0-10.7-4-12-9.3-2.1.2-3.8.4-4.7.5 2.9 10.4 14 19.7 16.9 19.7 3.4 0 13.8-9.2 16.5-19.7-.9-.1-2.5-.3-4.7-.5-1.3 5.3-6.2 9.3-12 9.3zM17.3 0L0 5v8.7s2.1-.3 5.3-.6c1.4-5.4 6.2-9.4 12.1-9.4 5.8 0 10.7 4 12.1 9.4 3.2.3 5.3.6 5.3.6V5L17.3 0zm.1 23.1c-2 0-3.7-.6-5.1-1.9-1-.9-1.8-2-2.1-3.3-.4-1.3-.4-2.7-.1-4 .1-.3.2-.7.4-1 .6-1.3 1.6-2.5 2.7-3.2.7-.4 1.5-.8 2.2-1 3.6-1 7.5.8 8.9 4.4 1 2.6.7 5-1 7.2-1 1.3-2.3 2.1-3.8 2.6-.6.1-1.4.2-2.1.2zm-1.5-5.2c0-.2-.1-.3-.1-.4-.3-.7-.5-1.4-.8-2.1-.1-.3-.3-.4-.5-.4-.5-.1-.9-.3-1.3-.5-.2-.1-.4-.2-.7-.2-.6.6-.9 1.4-1.5 2-.2 0-.3-.3-.5-.3 0 1.3.5 2.4 1.1 3.4.2-.1.1-.3.3-.4l2.4.6c.5-.5 1-1 1.6-1.7zm-1-8.6c-1.1.4-2.1 1.1-2.8 2 .2.1.4 0 .5.2.1.7 0 1.6.1 2.4.8.3 1.6.6 2.3.9.8-.6 1.6-1.1 2.3-1.8v-2.3c-.9-.3-1.7-.5-2.5-.7 0-.4.2-.4.1-.7zm4.3 12.5c.4-.6.8-1.3 1.3-2-.5-.5-1-1.1-1.6-1.6-.1-.1-.2-.1-.3-.1h-2.3c-.6.6-1.1 1.2-1.6 1.8.5.7 1.1 1.3 1.5 2-.1.1-.2.1-.2.2-.1 0-.2.1-.2.2 1 .4 3.4.3 3.6-.2 0-.1-.1-.1-.2-.3zm.8-7.1c.8-.3 1.5-.6 2.3-.9v-2.3c.1-.2.3-.1.3-.3-.4-.7-2.2-1.9-2.5-1.8-.1.1.1.2-.1.3-.7.3-1.5.4-2.3.8v2.4c.9.7 1.6 1.2 2.3 1.8zm.2.4c-.3.9-.7 1.8-1 2.7.6.6 1.1 1.2 1.7 1.7.9-.3 1.6-.7 2.4-1 .2.1.1.3.3.4.4-.8.7-1.7.8-2.6-.2-.1-.2.1-.4 0-.5-.5-1-1.3-1.6-1.9-.7.2-1.4.5-2.2.7z"/></svg>