<svg xmlns="http://www.w3.org/2000/svg" viewBox="0 0 24.6 38.7" enable-background="new 0 0 24.6 38.7"><style type="text/css">.st0{fill:#FF0000;}</style><path class="st0" d="M24.6.8v37.1c0 .5-.4.8-.8.8H.8c-.5 0-.8-.4-.8-.8V.8C0 .4.4 0 .8 0h22.9c.5 0 .9.4.9.8zm-1.7 36.3V1.7H1.7v35.4h21.2zM19.1 32v5.9c0 .5-.4.8-.8.8H6.4c-.5 0-.8-.4-.8-.8V32c0-.5.4-.8.8-.8h11.8c.5-.1.9.3.9.8zm-1.7 5.1v-4.2H7.2v4.2h10.2zM19.1.8v5.9c0 .5-.4.8-.8.8H6.4c-.5 0-.8-.4-.8-.8V.8c-.1-.4.3-.8.8-.8h11.8c.5 0 .9.4.9.8zm-1.7 5.1V1.7H7.2v4.2h10.2zm.2 13.5c0 2.9-2.4 5.3-5.3 5.3S7 22.3 7 19.4s2.4-5.3 5.3-5.3 5.3 2.4 5.3 5.3zm-8.9 0c0 2 1.6 3.6 3.6 3.6s3.6-1.6 3.6-3.6-1.6-3.6-3.6-3.6-3.6 1.6-3.6 3.6zm15.9 0c0 .5-.4.8-.8.8H.9c-.5 0-.8-.4-.8-.8 0-.5.4-.8.8-.8h22.9c.4-.1.8.3.8.8z"/></svg>