<?xml version="1.0" encoding="utf-8"?>
<!-- Generator: Adobe Illustrator 18.1.0, SVG Export Plug-In . SVG Version: 6.00 Build 0)  -->
<!DOCTYPE svg PUBLIC "-//W3C//DTD SVG 1.1//EN" "http://www.w3.org/Graphics/SVG/1.1/DTD/svg11.dtd">
<svg version="1.1" id="Layer_1" xmlns:sketch="http://www.bohemiancoding.com/sketch/ns"
	 xmlns="http://www.w3.org/2000/svg" xmlns:xlink="http://www.w3.org/1999/xlink" x="0px" y="0px" viewBox="-288 378 38 38"
	 enable-background="new -288 378 38 38" xml:space="preserve">
<title>Soccer Ball</title>
<desc>Created with Sketch.</desc>
<g id="Home-Design" sketch:type="MSPage">
	<g id="Home-Design-V2" transform="translate(-553.000000, -2202.000000)" sketch:type="MSArtboardGroup">
		<g id="Soccer-Ball" transform="translate(552.000000, 2202.000000)" sketch:type="MSLayerGroup">
			<path id="Oval-8" sketch:type="MSShapeGroup" fill="#FFFFFF" stroke="#85E1E5" stroke-width="2" d="M-268,415c9.9,0,18-8.1,18-18
				s-8.1-18-18-18s-18,8.1-18,18S-277.9,415-268,415z"/>
			<polygon id="Polygon-6" sketch:type="MSShapeGroup" fill="#85E1E5" points="-268,391 -262.3,395.1 -264.5,401.9 -271.5,401.9 
				-273.7,395.1 			">
			</polygon>
			<path id="Line" sketch:type="MSShapeGroup" fill="none" stroke="#85E1E5" stroke-linecap="square" d="M-271.4,401.6l-4.4,5.9"/>
			<path id="Line-2" sketch:type="MSShapeGroup" fill="none" stroke="#85E1E5" stroke-linecap="square" d="M-264.7,401.7l4.5,6"/>
			<path id="Line_1_" sketch:type="MSShapeGroup" fill="none" stroke="#85E1E5" stroke-linecap="square" d="M-262.6,395.3l6.2-1.1"
				/>
			<path id="Line_2_" sketch:type="MSShapeGroup" fill="none" stroke="#85E1E5" stroke-linecap="square" d="M-273.5,395.3l-5.8-1.1"
				/>
			<path id="Line_3_" sketch:type="MSShapeGroup" fill="none" stroke="#85E1E5" stroke-linecap="square" d="M-268,391.5v-8.1"/>
			<polygon id="Polygon-10" sketch:type="MSShapeGroup" fill="#85E1E5" points="-252.9,388.3 -250.9,392.6 -250.5,398.8 
				-252.5,399.7 -256.8,394.2 			">
			</polygon>
			<path id="Polygon-11" sketch:type="MSShapeGroup" fill="#85E1E5" d="M-283.4,388.3c0,0-0.8,2-2.6,4.3s0.5,6.5,0.5,6.5l1.7,0.6
				l4.3-5.6L-283.4,388.3z"/>
			<polygon id="Polygon-9" sketch:type="MSShapeGroup" fill="#85E1E5" points="-268,384.9 -273.7,380.7 -268,379.4 -262.3,380.7 			
				">
			</polygon>
			<polygon id="Polygon-7" sketch:type="MSShapeGroup" fill="#85E1E5" points="-275.5,407.3 -273.9,413.6 -278.9,410.6 
				-282.5,406.8 			">
			</polygon>
			<polygon id="Polygon-8" sketch:type="MSShapeGroup" fill="#85E1E5" points="-260.5,407.3 -262.2,414.1 -258.1,411.3 
				-253.5,406.8 			">
			</polygon>
		</g>
	</g>
</g>
</svg>
