<svg xmlns="http://www.w3.org/2000/svg" viewBox="0 0 40.2 39.2" enable-background="new 0 0 40.2 39.2"><style type="text/css">.st0{fill:#FF0000;}</style><path class="st0" d="M20.1 39.2c-5.3.1-9.8-1.7-13.5-5.1C4 31.7 1.9 28.7.9 25.2 0 21.8-.3 18 .6 14.6c.2-.9.6-1.9 1-2.7 1.6-3.3 4.2-6.6 7.3-8.6 1.8-1.2 3.9-2.1 5.9-2.6 9.6-2.6 20 2.1 23.8 11.6 2.8 6.8 1.8 13.3-2.6 19.3-2.6 3.5-6 5.6-10.1 6.9-1.9.6-4 .8-5.8.7zm-4.2-13.7c-.1-.4-.2-.7-.3-1-.7-1.9-1.4-3.7-2.1-5.6-.3-.7-.7-1-1.4-1.2-1.1-.2-2.3-.7-3.4-1.2-.6-.3-1.2-.5-1.9-.5-1.5 1.7-2.4 3.8-4.1 5.2-.6 0-.7-.7-1.3-.7 0 3.5 1.3 6.4 3.1 9.1.6-.2.3-.9.8-1 2.1.5 4.2 1.1 6.4 1.6 1.4-1.4 2.7-3 4.2-4.7zM13.3 2.6c-3 1.1-5.5 2.9-7.6 5.3.5.4 1 0 1.4.5.2 2-.1 4.1.2 6.3 2.2.8 4.2 1.6 6.2 2.3 2.2-1.6 4.2-3.1 6.1-4.9V5.9c-2.3-.7-4.5-1.3-6.6-2-.1-.5.5-.7.3-1.3zm11.5 33.3c1.1-1.7 2.3-3.4 3.5-5.3-1.4-1.4-2.8-2.8-4.1-4.2-.2-.2-.5-.3-.9-.3-2 0-4.1-.1-6 .1-1.6 1.5-2.9 3.2-4.4 4.8 1.2 2 3 3.5 4.1 5.4-.3.2-.4.3-.6.4-.2.1-.5.4-.5.5 2.6 1.1 9.1.7 9.7-.5-.2-.3-.6-.3-.8-.9zm2.2-19c2.1-.8 4.1-1.5 6.2-2.3V8.5c.3-.6.8-.3.8-.8-1.2-1.8-5.9-5.2-6.6-4.7-.2.2.2.5-.2.9-1.9.7-4 1.2-6 2.1v6.5c1.9 1.4 3.8 2.9 5.8 4.4zm.5 1.2c-.9 2.4-1.9 4.7-2.6 7.1 1.6 1.6 2.9 3.1 4.5 4.4 2.3-.8 4.4-1.9 6.5-2.6.5.3.2.9.7 1.1 1.1-2.2 2-4.4 2-6.9-.4-.2-.6.3-1.2-.1-1.5-1.5-2.6-3.5-4.3-5.2-1.7.8-3.6 1.5-5.6 2.2z"/></svg>