<svg xmlns="http://www.w3.org/2000/svg" viewBox="-288 378 38 38" enable-background="new -288 378 38 38"><title>Soccer Ball</title><desc>Created with Sketch.</desc><path fill="#fff" stroke="#85E1E5" stroke-width="2" d="M-269 415c9.9 0 18-8.1 18-18s-8.1-18-18-18-18 8.1-18 18 8.1 18 18 18z"/><path fill="#85E1E5" d="M-269 391l5.7 4.1-2.2 6.8h-7l-2.2-6.8z"/><path fill="none" stroke="#85E1E5" stroke-linecap="square" d="M-272.4 401.6l-4.4 5.9m11.1-5.8l4.5 6m-2.4-12.4l6.2-1.1m-17.1 1.1l-5.8-1.1m11.3-2.7v-8.1"/><path fill="#85E1E5" d="M-253.9 388.3l2 4.3.4 6.2-2 .9-4.3-5.5zm-30.5 0s-.8 2-2.6 4.3.5 6.5.5 6.5l1.7.6 4.3-5.6-3.9-5.8zm15.4-3.4l-5.7-4.2 5.7-1.3 5.7 1.3zm-7.5 22.4l1.6 6.3-5-3-3.6-3.8zm15 0l-1.7 6.8 4.1-2.8 4.6-4.5z"/></svg>